<svg width="933px" height="146px" viewBox="0 0 933 146" version="1.1" xmlns="http://www.w3.org/2000/svg"
     xmlns:xlink="http://www.w3.org/1999/xlink">
    <g id="Page-1" stroke="none" stroke-width="1" fill="none" fill-rule="evenodd">
        <g id="Logo" transform="translate(-75.000000, -652.000000)" fill-rule="nonzero">
            <g id="nuxtcms" transform="translate(297.000000, 393.000000)">
                <path
                    d="M10,302.8 L41.4,302.8 L41.4,310.6 C46.4,305 55.2,300.8 65.6,300.8 C85.6,300.8 97.4,313.8 97.4,333.8 L97.4,392.8 L66.2,392.8 L66.2,341.4 C66.2,334 62.4,328.6 54.4,328.6 C48.2,328.6 43,332.2 41.4,338.4 L41.4,392.8 L10,392.8 L10,302.8 Z M200.4,392.8 L169,392.8 L169,385 C164.2,390.6 155.2,394.8 145,394.8 C125.2,394.8 113.4,381.8 113.4,361.8 L113.4,302.8 L144.6,302.8 L144.6,354.4 C144.6,362 148.2,367.4 156.2,367.4 C162,367.4 167.4,363.6 169,357.4 L169,302.8 L200.4,302.8 L200.4,392.8 Z M275.2,346.8 L306.8,392.8 L272.8,392.8 L257.4,369.4 L242,392.8 L209.6,392.8 L241,347 L211,302.8 L244.8,302.8 L258.8,324.4 L273,302.8 L305.4,302.8 L275.2,346.8 Z M357.6,392.8 L326.4,392.8 L326.4,327.2 L310.8,327.2 L310.8,302.8 L326.4,302.8 L326.4,278 L357.6,278 L357.6,302.8 L375.2,302.8 L375.2,327.2 L357.6,327.2 L357.6,392.8 Z"
                    id="nuxt-copy" fill="#3F7F70"></path>
                <path
                    d="M402,347.8 C402,318.8 422,300.8 449,300.8 C458.2,300.8 466.8,302.6 473.2,307.2 L473.2,333.6 C467.4,329.4 461.2,327.2 453.8,327.2 C442.2,327.2 433,334.2 433,347.8 C433,361.4 442.2,368.4 453.8,368.4 C461.2,368.4 467.4,366.2 473.2,362 L473.2,388.4 C466.8,393 458.2,394.8 449,394.8 C422,394.8 402,376.8 402,347.8 Z M566.2,311.6 C571.6,306 580.8,300.8 594,300.8 C612.8,300.8 624.4,313.6 624.4,333.8 L624.4,392.8 L593,392.8 L593,341.4 C593,333.8 589.8,328.4 582.8,328.4 C577.4,328.4 572.8,331.8 571.2,338 L571.2,392.8 L540,392.8 L540,341.4 C540,333.8 536.8,328.4 529.8,328.4 C524.4,328.4 519.6,331.8 518.2,338 L518.2,392.8 L486.8,392.8 L486.8,302.8 L518.2,302.8 L518.2,310.2 C522.8,304.6 531.4,300.8 541.4,300.8 C552.8,300.8 560.8,305.2 566.2,311.6 Z M637.4,386.2 L637.4,359.8 C646,366.8 660,371.2 669.2,371.2 C675.4,371.2 679.4,369.8 679.4,365.8 C679.4,362.2 676.6,360.8 671.2,359.6 L664.2,357.8 C647.6,354.2 637,346.4 637,330.2 C637,311.4 652.6,300.8 673.8,300.8 C686.6,300.8 696.4,303.4 705.2,308.8 L705.2,334.6 C696.6,328.4 687,324.2 676.8,324.2 C671.4,324.2 667.8,326 667.8,329.6 C667.8,333 670.4,334.2 674.8,335.4 L683,337.8 C702.6,343 710.4,351 710.4,366.2 C710.4,385.4 693.8,394.8 671.6,394.8 C659,394.8 645.8,391.8 637.4,386.2 Z"
                    id="cms-copy" fill="#4A4A4A"></path>
            </g>
            <g id="nuxt" transform="translate(52.000000, 21.000000)">
                <path
                    d="M143.766193,748.096202 L171.197914,700.082914 L115.914097,699.839989 L101,674 L219,674.518509 L160.448632,777 L143.766193,748.096202 Z"
                    id="Combined-Shape" fill="#48B884"></path>
                <path
                    d="M125.507374,657.84228 L70.8021801,658.082445 L97.9467263,705.593424 L81.5512313,734 L23,631.51804 L141,631 L125.507374,657.84228 Z"
                    id="Combined-Shape-Copy-2" fill="#3F7F70"></path>
            </g>
        </g>
    </g>
</svg>
